<svg width="225" height="40" viewBox="0 0 225 40" fill="none" xmlns="http://www.w3.org/2000/svg">
<g clip-path="url(#clip0_21_6505)">
<path d="M29.8408 6.76115L48.8476 11.6366V6.70727L29.8408 0.0136719V6.76115Z" fill="#A28800"/>
<path d="M29.8408 16.0136L48.8476 17.7375V12.7947L29.8408 8.94287V16.0136Z" fill="#A28800"/>
<path d="M17.8887 23.9598L48.8878 23.9328V18.9901L17.8887 17.4951V23.9598Z" fill="#A28800"/>
<path d="M17.9157 31.9866L48.8483 30.2357V25.293L17.9023 25.6835L17.9157 31.9866Z" fill="#A28800"/>
<path d="M17.9426 39.9999L48.862 36.6464V31.7036L17.916 33.6834L17.9426 39.9999Z" fill="#A28800"/>
<path d="M29.2023 16.0269C24.0478 15.3292 18.8304 15.2433 13.6561 15.771C3.99302 16.6195 0 18.1144 0 18.1144V12.8619C4.44794 11.2549 9.05981 10.1571 13.7493 9.58916C18.8702 8.89907 24.043 8.68718 29.2023 8.95617V16.0269Z" fill="#572700"/>
<path d="M29.189 6.73401C23.9899 6.53486 18.7843 6.88241 13.6561 7.77104C8.98485 8.48046 4.40512 9.70899 0 11.4343L0 6.50505C4.50143 4.73817 9.09075 3.20972 13.7493 1.92593C18.8087 0.702694 23.9875 0.056692 29.189 0V6.73401Z" fill="#572700"/>
<path d="M17.3031 33.6702C9.98256 32.3234 0 31.623 0 31.623V36.5523L17.3031 39.9463V33.6702Z" fill="#572700"/>
<path d="M17.3031 25.6836C11.5604 24.9444 5.75026 24.9128 0 25.5893L0 30.5725C5.76002 30.6298 11.5097 31.0798 17.2099 31.9193H17.3031V25.6836Z" fill="#572700"/>
<path d="M17.3031 17.5084C9.84946 17.1313 0 19.5017 0 19.5017V24.431C5.71951 23.8775 11.4708 23.738 17.2099 24.0135H17.3031V17.5084Z" fill="#572700"/>
<path d="M59.1631 9.96652V24.31H55.3564V7.69043H63.5688V9.96652H59.1631Z" fill="white"/>
<path d="M70.7033 17.7509C70.2049 17.7506 69.7071 17.7191 69.2126 17.6566V24.3098H65.3926V7.91922C67.0491 7.71544 68.7153 7.60304 70.3839 7.58252C75.0158 7.58252 76.5331 9.83168 76.5331 12.3502C76.5331 15.6229 74.6032 17.7509 70.7033 17.7509ZM70.1842 9.83168C69.8529 9.82895 69.5224 9.8651 69.1993 9.93942V15.6229C69.524 15.6852 69.8537 15.7168 70.1842 15.7172C72.4735 15.7172 72.8462 14.1549 72.8462 12.5657C72.9013 12.1974 72.8708 11.8212 72.7571 11.4669C72.6434 11.1126 72.4497 10.7899 72.1914 10.5246C71.933 10.2593 71.6171 10.0585 71.2687 9.9382C70.9203 9.81792 70.549 9.78145 70.1842 9.83168V9.83168Z" fill="white"/>
<path d="M78.6357 24.31V7.69043H87.3538V9.96652H82.4291V14.4648H86.4221V16.6467H82.4291V22.0339H87.5402V24.2965L78.6357 24.31Z" fill="white"/>
<path d="M102.089 24.31V12.916L97.683 22.9766H96.7247L92.3989 12.8891V24.31H89.5771V7.69043H94.0493L98.0424 16.5928L101.916 7.69043H105.909V24.31H102.089Z" fill="white"/>
<path d="M116.104 24.3098V17.293H115.798C115.066 17.293 114.307 17.4276 113.468 19.8384L111.938 24.3098H107.812L109.622 20.3502C110.766 17.8182 111.365 17.2391 112.284 16.7542V16.6196C111.284 16.5106 110.363 16.0161 109.714 15.2386C109.064 14.4612 108.736 13.4605 108.796 12.4445C108.796 9.52191 110.7 7.58252 114.932 7.58252C115.917 7.58252 119.857 7.69026 119.857 7.69026V24.3098H116.104ZM116.104 9.96636C115.734 9.87152 115.353 9.8307 114.972 9.84515C114.624 9.85128 114.281 9.92968 113.964 10.0755C113.647 10.2213 113.364 10.4314 113.13 10.6927C112.897 10.9541 112.719 11.2612 112.608 11.595C112.496 11.9287 112.454 12.282 112.483 12.633C112.45 12.9658 112.485 13.3019 112.585 13.6206C112.686 13.9393 112.849 14.2339 113.066 14.4862C113.283 14.7385 113.549 14.9432 113.847 15.0878C114.145 15.2323 114.469 15.3136 114.799 15.3266H116.13L116.104 9.96636Z" fill="white"/>
<path d="M130.226 24.31V16.5524C129.18 17.4323 127.86 17.9094 126.499 17.8992C122.24 17.8992 122.506 14.2359 122.506 13.347V7.69043H126.313V12.512C126.313 14.2359 126.539 15.4076 128.043 15.4076C128.493 15.4405 128.942 15.3277 129.325 15.0856C129.708 14.8436 130.005 14.4847 130.173 14.0608V7.69043H133.979V24.31H130.226Z" fill="white"/>
<path d="M146.104 24.31V12.4985L140.78 24.31H136.907V7.69043H140.714V18.9766L146.038 7.69043H149.898V24.31H146.104Z" fill="white"/>
<path d="M161.132 24.31V16.916H156.474V24.31H152.667V7.69043H156.474V14.5591H161.132V7.69043H164.926V24.31H161.132Z" fill="white"/>
<path d="M177.982 11.744C177.655 11.1592 177.184 10.6697 176.615 10.3229C176.046 9.97603 175.398 9.78362 174.735 9.76425C173.404 9.76425 171.527 11.1784 171.527 16.0134C171.527 20.3905 173.177 21.8316 174.961 21.8316C176.194 21.8969 177.41 21.5202 178.395 20.7676L179.287 22.5319C178.568 23.2475 177.711 23.8056 176.77 24.1717C175.829 24.5378 174.823 24.704 173.816 24.6599C171.434 24.6599 167.627 22.7609 167.627 16.202C167.627 9.33327 171.953 7.48815 174.961 7.48815C175.833 7.4377 176.705 7.5762 177.52 7.8944C178.335 8.21259 179.073 8.70315 179.686 9.33327L177.982 11.744Z" fill="white"/>
<path d="M189.615 24.31L187.645 18.9228C186.953 17.0238 186.62 16.7409 185.835 16.7409H185.462V24.2696H181.669V7.69043H185.462V14.815H185.835C186.727 14.815 186.953 13.9531 187.645 12.31L188.604 9.99346C188.779 9.28748 189.199 8.66896 189.789 8.25102C190.378 7.83308 191.096 7.64365 191.811 7.71737H192.916V10.4514H192.57C191.612 10.4514 191.239 11.6096 190.667 13.2123C190.094 14.815 189.801 15.1382 188.976 15.4884V15.6231C189.708 15.852 190.307 16.3908 191.199 18.3167L193.861 24.2696L189.615 24.31Z" fill="white"/>
<path d="M204.735 24.31V12.4985L199.411 24.31H195.538V7.69043H199.345V18.9766L204.669 7.69043H208.515V24.31H204.735Z" fill="white"/>
<path d="M220.468 24.3096V12.4981L215.144 24.3096H211.271V7.69004H215.077V18.9762L220.401 7.69004H224.248V24.3096H220.468ZM217.899 7.69004C217.41 7.73674 216.917 7.68006 216.451 7.52361C215.985 7.36716 215.556 7.11436 215.192 6.78125C214.828 6.44815 214.536 6.04203 214.335 5.5887C214.134 5.13537 214.029 4.64473 214.026 4.14795H216.435C216.465 4.51825 216.633 4.86315 216.905 5.1131C217.176 5.36304 217.532 5.49943 217.899 5.49475C218.085 5.51363 218.272 5.49281 218.449 5.43363C218.626 5.37446 218.789 5.27825 218.927 5.15125C219.065 5.02426 219.176 4.86931 219.251 4.69647C219.326 4.52362 219.364 4.33674 219.363 4.14795H221.772C221.75 4.63866 221.632 5.12007 221.425 5.56435C221.218 6.00863 220.926 6.40696 220.566 6.73633C220.205 7.0657 219.784 7.31957 219.327 7.48327C218.869 7.64697 218.384 7.71724 217.899 7.69004Z" fill="white"/>
<path d="M60.1483 36.3638L60.0418 35.017H56.2617L56.1553 36.3638H55.4365V34.2763H55.9024C56.3625 33.725 56.6416 33.0425 56.701 32.3234C56.8363 31.5585 56.912 30.7839 56.9273 30.0069V29.2393H60.2415V34.2628H60.8404V36.3638H60.1483ZM59.3098 29.98H57.7392V30.6669C57.7038 31.2736 57.6237 31.8769 57.4996 32.4716C57.3966 33.0931 57.1943 33.6936 56.9006 34.2494H59.363L59.3098 29.98Z" fill="white"/>
<path d="M62.7037 32.0942C62.7037 33.8585 63.6354 34.3838 64.4873 34.3838C65.005 34.3781 65.5061 34.198 65.9114 33.872L66.1909 34.4511C65.6135 34.916 64.8921 35.1593 64.1545 35.138C62.9433 35.138 61.7188 34.2087 61.7188 32.1616C61.7188 29.8451 63.2361 29.1582 64.1146 29.1582C65.6053 29.1582 66.2841 30.1279 66.2841 31.8518V32.0942H62.7037ZM65.3657 31.1784C65.3823 31.0098 65.3642 30.8396 65.3124 30.6784C65.2607 30.5173 65.1765 30.3688 65.0652 30.2422C64.9539 30.1157 64.8179 30.0138 64.6657 29.9432C64.5135 29.8725 64.3485 29.8345 64.1811 29.8316C63.8617 29.8316 63.0098 29.9798 62.8501 31.4074H65.4056L65.3657 31.1784Z" fill="white"/>
<path d="M69.5721 35.2187C69.3237 35.2444 69.0728 35.2089 68.841 35.1151C68.6092 35.0212 68.4033 34.8719 68.2411 34.6799V37.7102H67.3094V30.6799C67.3061 30.2299 67.2795 29.7803 67.2295 29.3331L68.1346 29.2389L68.2411 30.1412C68.422 29.843 68.6769 29.5979 68.9805 29.4301C69.284 29.2624 69.6256 29.1779 69.9714 29.185C71.1826 29.185 72.1276 30.0604 72.1276 31.9729C72.1941 34.249 70.7833 35.2187 69.5721 35.2187ZM69.785 29.9392C68.6537 29.9392 68.3076 31.0166 68.3076 31.9863V33.3331C68.3084 33.5032 68.3446 33.6711 68.4138 33.8261C68.483 33.9811 68.5836 34.1196 68.7091 34.2326C68.8346 34.3457 68.9823 34.4307 69.1424 34.4823C69.3025 34.5338 69.4716 34.5507 69.6386 34.5318C70.557 34.5318 71.2225 33.9257 71.2225 31.9729C71.2092 30.4914 70.5437 29.9392 69.785 29.9392V29.9392Z" fill="white"/>
<path d="M74.1773 32.0942C74.1773 33.8585 75.109 34.3838 75.9609 34.3838C76.4786 34.3781 76.9797 34.198 77.385 33.872L77.6646 34.4511C77.0871 34.916 76.3658 35.1593 75.6281 35.138C74.4169 35.138 73.1924 34.2087 73.1924 32.1616C73.1924 29.8451 74.7097 29.1582 75.5882 29.1582C77.0789 29.1582 77.771 30.1279 77.771 31.8518V32.0942H74.1773ZM76.8393 31.1784C76.854 31.0091 76.834 30.8386 76.7807 30.6774C76.7275 30.5162 76.642 30.3679 76.5297 30.2416C76.4173 30.1153 76.2805 30.0137 76.1277 29.9432C75.9749 29.8726 75.8094 29.8347 75.6414 29.8316C75.322 29.8316 74.4701 29.9798 74.3104 31.4074H76.8793L76.8393 31.1784Z" fill="white"/>
<path d="M80.5789 35.0168H78.8486V29.2524H80.4325C81.4707 29.2524 82.8284 29.2524 82.8284 30.5992C82.8346 30.9143 82.7315 31.2217 82.537 31.4677C82.3424 31.7138 82.0687 31.8831 81.7635 31.946V32.0269C82.0895 32.0339 82.3996 32.1709 82.6264 32.4079C82.8532 32.6449 82.9783 32.9629 82.9748 33.2928C82.9748 34.6262 81.7236 35.0168 80.5789 35.0168ZM80.5789 29.9393C80.333 29.9434 80.0879 29.9704 79.8469 30.0201V31.744H80.712C81.6837 31.744 81.91 31.2996 81.91 30.6935C81.91 30.0875 80.8052 29.9528 80.5257 29.9528L80.5789 29.9393ZM80.6588 32.3231H79.8602V34.2221C80.1377 34.32 80.4327 34.3567 80.7254 34.3299C81.9233 34.3299 82.0564 33.6026 82.0564 33.239C82.0031 32.5386 81.4175 32.3231 80.6588 32.3231Z" fill="white"/>
<path d="M86.2626 35.2188C84.9316 35.2188 83.8535 34.2087 83.8535 32.1616C83.8535 29.5622 85.4374 29.1582 86.3026 29.1582C87.1677 29.1582 88.7916 29.5757 88.7916 32.1616C88.7916 34.2087 87.567 35.2188 86.2626 35.2188ZM86.2626 29.8316C85.7302 29.8316 84.8118 29.9932 84.8118 32.1346C84.8118 33.7104 85.464 34.4781 86.2626 34.4781C87.0612 34.4781 87.8465 33.7373 87.8465 32.1616C87.8465 30.0202 86.8217 29.8585 86.3026 29.8585L86.2626 29.8316Z" fill="white"/>
<path d="M92.1455 35.2188C90.8144 35.2188 89.7363 34.2087 89.7363 32.1616C89.7363 29.5622 91.3202 29.1582 92.1854 29.1582C93.0505 29.1582 94.6744 29.5757 94.6744 32.1616C94.6744 34.2087 93.4498 35.2188 92.1455 35.2188ZM92.1455 29.8316C91.6131 29.8316 90.6947 29.9932 90.6947 32.1346C90.6947 33.7104 91.3469 34.4781 92.1455 34.4781C92.9441 34.4781 93.6362 33.7104 93.6362 32.1346C93.6761 30.0202 92.7045 29.8585 92.1854 29.8585L92.1455 29.8316Z" fill="white"/>
<path d="M98.0024 35.2055C96.6714 35.2055 95.6465 34.2492 95.6465 31.8789C95.6465 29.8452 95.7263 27.7307 97.7495 26.8418C98.415 26.5455 99.6794 26.3839 100.119 26.1011V27.1112C99.6262 27.4344 98.4017 27.5287 97.7229 27.8519C97.3215 28.0603 96.9848 28.3769 96.7499 28.7666C96.515 29.1564 96.3911 29.6042 96.3918 30.0607H96.485C96.6769 29.7696 96.9389 29.5329 97.2463 29.3726C97.5537 29.2124 97.8963 29.134 98.2419 29.1448C99.0805 29.1448 100.545 29.4681 100.545 32.0674C100.593 32.4443 100.564 32.8271 100.461 33.1924C100.357 33.5577 100.181 33.8978 99.9428 34.1916C99.7047 34.4855 99.4098 34.7271 99.0761 34.9014C98.7424 35.0757 98.377 35.1792 98.0024 35.2055V35.2055ZM98.1488 29.8182C97.7761 29.8182 96.6447 29.8856 96.6447 32.0405C96.6447 33.7105 97.2703 34.4782 98.0556 34.4782C98.8409 34.4782 99.5996 33.7105 99.5996 32.1347C99.5996 30.0203 98.6679 29.8452 98.1488 29.8452V29.8182Z" fill="white"/>
<path d="M103.991 35.2187C103.754 35.2335 103.516 35.1927 103.297 35.0992C103.078 35.0058 102.882 34.8623 102.727 34.6799V37.7102H101.782V30.6799C101.786 30.2297 101.759 29.7797 101.702 29.3331L102.621 29.2389L102.727 30.1412C102.908 29.843 103.163 29.5979 103.466 29.4301C103.77 29.2624 104.112 29.1779 104.457 29.185C105.655 29.185 106.614 30.0604 106.614 31.9729C106.614 34.249 105.149 35.2187 103.991 35.2187ZM104.204 29.9392C103.06 29.9392 102.727 31.0166 102.727 31.9863V33.3331C102.728 33.5032 102.764 33.6711 102.833 33.8261C102.902 33.9811 103.003 34.1196 103.129 34.2326C103.254 34.3457 103.402 34.4307 103.562 34.4823C103.722 34.5338 103.891 34.5507 104.058 34.5318C104.963 34.5318 105.642 33.9257 105.642 31.9729C105.629 30.4914 104.976 29.9392 104.204 29.9392V29.9392Z" fill="white"/>
<path d="M111.259 35.0167C111.139 34.7339 111.063 34.4341 111.033 34.1278V34.1278C110.852 34.4568 110.581 34.7267 110.253 34.9056C109.926 35.0845 109.554 35.1651 109.183 35.1379C108.973 35.1393 108.766 35.0957 108.574 35.0099C108.383 34.924 108.212 34.798 108.072 34.64C107.932 34.4821 107.827 34.2959 107.764 34.0938C107.701 33.8917 107.681 33.6783 107.705 33.4678C107.705 31.7439 109.116 31.515 109.982 31.488H111.033V31.0975C111.033 30.0739 110.541 29.9123 110.061 29.9123C109.749 29.9354 109.445 30.0212 109.166 30.1646C108.888 30.3079 108.64 30.506 108.438 30.7473L107.998 30.0066C108.626 29.4896 109.412 29.2088 110.221 29.2119C111.965 29.2119 111.965 30.4241 111.965 31.1513V31.9594C111.85 32.981 111.908 34.015 112.138 35.0167H111.259ZM110.98 32.0268H110.168C109.462 32.0268 108.624 32.1614 108.624 33.2254C108.624 33.9796 108.983 34.3567 109.502 34.3567C110.487 34.3567 110.98 33.2658 110.98 32.5789V32.0268Z" fill="white"/>
<path d="M115.532 35.2055C114.201 35.2055 113.176 34.2492 113.176 31.8789C113.176 29.8452 113.176 27.7307 115.265 26.8418C115.931 26.5455 117.195 26.3839 117.635 26.1011L117.701 27.1112C117.222 27.4344 115.984 27.5287 115.319 27.8519C114.921 28.065 114.588 28.3826 114.353 28.7713C114.119 29.16 113.993 29.6054 113.988 30.0607H114.094C114.281 29.7774 114.535 29.5455 114.832 29.3857C115.129 29.2258 115.461 29.1431 115.798 29.1448C116.623 29.1448 118.101 29.4681 118.101 32.0674C118.147 32.4461 118.116 32.8303 118.01 33.1965C117.904 33.5627 117.725 33.9031 117.485 34.197C117.244 34.4908 116.947 34.7318 116.611 34.9052C116.275 35.0786 115.908 35.1808 115.532 35.2055V35.2055ZM115.665 29.8182C115.292 29.8182 114.174 29.8856 114.174 32.0405C114.174 33.7105 114.8 34.4782 115.505 34.4782C116.21 34.4782 117.129 33.7374 117.129 32.1617C117.129 30.0203 116.184 29.8452 115.665 29.8452V29.8182Z" fill="white"/>
<path d="M122.746 35.0167C122.625 34.734 122.549 34.4341 122.519 34.1278C122.338 34.4569 122.067 34.7267 121.74 34.9057C121.412 35.0846 121.041 35.1652 120.669 35.1379C120.46 35.1394 120.252 35.0957 120.061 35.0099C119.869 34.9241 119.698 34.798 119.558 34.6401C119.419 34.4822 119.314 34.296 119.25 34.0939C119.187 33.8918 119.167 33.6784 119.192 33.4679C119.192 31.744 120.603 31.515 121.481 31.4881H122.519V31.0975C122.519 30.0739 122.027 29.9123 121.561 29.9123C121.248 29.9325 120.943 30.0169 120.664 30.1605C120.385 30.304 120.137 30.5037 119.937 30.7474L119.498 30.0066C120.119 29.4876 120.902 29.2063 121.707 29.212C123.451 29.212 123.451 30.4241 123.451 31.1514V31.9595C123.336 32.9811 123.394 34.0151 123.624 35.0167H122.746ZM122.453 32.0403H121.641C120.935 32.0403 120.097 32.175 120.097 33.2389C120.097 33.9931 120.456 34.3702 120.975 34.3702C121.96 34.3702 122.453 33.2793 122.453 32.5925V32.0403Z" fill="white"/>
<path d="M126.845 30.0067V35.0168H125.9V30.0067H124.343V29.2524H128.336V30.0067H126.845Z" fill="white"/>
<path d="M131.037 35.0168H129.32V29.2524H130.265V31.542C130.265 31.542 130.851 31.4612 131.17 31.4612C132.914 31.4612 133.38 32.2693 133.38 33.1582C133.38 34.505 132.195 35.0168 131.037 35.0168ZM131.037 32.0673C130.771 32.0673 130.265 32.0673 130.265 32.0673V34.2491C130.265 34.2491 130.718 34.2491 131.117 34.2491C132.195 34.2491 132.382 33.643 132.382 33.0504C132.382 32.3231 131.849 32.0807 131.037 32.0807V32.0673ZM134.045 35.0168V29.2524H134.99V35.0168H134.045Z" fill="white"/>
<path d="M138.185 35.0168H136.455V29.2524H138.039C139.077 29.2524 140.435 29.2524 140.435 30.5992C140.44 30.9162 140.335 31.2251 140.138 31.4714C139.941 31.7178 139.664 31.8859 139.357 31.946V32.0269C139.519 32.0286 139.68 32.0628 139.829 32.1273C139.979 32.1919 140.114 32.2857 140.228 32.4032C140.342 32.5208 140.432 32.6598 140.492 32.8125C140.553 32.9651 140.583 33.1284 140.581 33.2928C140.581 34.6262 139.33 35.0168 138.185 35.0168ZM138.185 29.9393C137.935 29.9441 137.686 29.9711 137.44 30.0201V31.744H138.318C139.29 31.744 139.516 31.2996 139.516 30.6935C139.516 30.0875 138.425 29.9528 138.132 29.9528L138.185 29.9393ZM138.318 32.3366H137.44V34.2356C137.723 34.3318 138.021 34.3685 138.318 34.3433C139.516 34.3433 139.649 33.6161 139.649 33.2524C139.61 32.5386 139.011 32.3231 138.265 32.3231L138.318 32.3366Z" fill="white"/>
<path d="M145.08 35.0167C144.959 34.7339 144.883 34.4341 144.853 34.1278V34.1278C144.672 34.4568 144.401 34.7267 144.074 34.9056C143.746 35.0845 143.375 35.1651 143.003 35.1379C142.794 35.1393 142.586 35.0957 142.395 35.0099C142.203 34.924 142.032 34.798 141.892 34.64C141.753 34.4821 141.648 34.2959 141.584 34.0938C141.521 33.8917 141.501 33.6783 141.526 33.4678C141.526 31.7439 142.937 31.515 143.815 31.488H144.853V31.0975C144.853 30.0739 144.361 29.9123 143.895 29.9123C143.582 29.9324 143.277 30.0168 142.998 30.1604C142.719 30.304 142.471 30.5037 142.271 30.7473L141.819 30.0066C142.446 29.4896 143.232 29.2088 144.041 29.2119C145.798 29.2119 145.798 30.4241 145.798 31.1513V31.9594C145.691 33.0056 145.763 34.0627 146.011 35.084L145.08 35.0167ZM144.8 32.0268H143.988C143.283 32.0268 142.444 32.1614 142.444 33.2254C142.444 33.9796 142.804 34.3567 143.323 34.3567C144.308 34.3567 144.8 33.2658 144.8 32.5789V32.0268Z" fill="white"/>
<path d="M151.735 35.2056C150.404 35.2056 149.379 34.2629 149.312 32.3504H148.154V35.044H147.223V29.2528H148.154V31.7174H149.326C149.592 29.5895 150.963 29.145 151.775 29.145C152.587 29.145 154.25 29.576 154.25 32.1619C154.264 34.209 153.066 35.2056 151.735 35.2056ZM151.735 29.8184C151.202 29.8184 150.257 29.9935 150.257 32.1349C150.257 33.7107 150.936 34.4784 151.735 34.4784C152.533 34.4784 153.212 33.7107 153.212 32.1349C153.265 30.0204 152.294 29.8454 151.735 29.8454V29.8184Z" fill="white"/>
<path d="M162.489 36.3636L162.383 35.0168H155.475V29.2524H156.406V34.276H158.496V29.2524H159.441V34.276H161.531V29.2524H162.462V34.276H163.208V36.3636H162.489Z" fill="white"/>
<path d="M167.867 35.0166V30.5452L165.205 35.0301H164.26V29.2523H165.205V33.6698L167.867 29.2119H168.798V35.0166H167.867Z" fill="white"/>
<path d="M173.869 35.0171V30.5457L171.207 35.0305H170.275V29.2527H171.207V33.6703L173.869 29.2123H174.814V35.0171H173.869ZM172.538 28.6197C172.33 28.6404 172.119 28.6168 171.921 28.5504C171.722 28.4841 171.539 28.3765 171.384 28.2345C171.228 28.0925 171.104 27.9193 171.018 27.7259C170.933 27.5325 170.889 27.3232 170.888 27.1113H171.7C171.717 27.3364 171.819 27.5461 171.985 27.6966C172.151 27.8472 172.368 27.927 172.591 27.9194C172.703 27.9267 172.814 27.9115 172.919 27.8746C173.025 27.8377 173.122 27.78 173.205 27.7048C173.288 27.6295 173.355 27.5383 173.403 27.4364C173.451 27.3345 173.478 27.224 173.483 27.1113H174.228C174.225 27.3218 174.18 27.5295 174.095 27.7216C174.01 27.9137 173.887 28.0863 173.734 28.2287C173.58 28.3712 173.4 28.4805 173.204 28.55C173.007 28.6196 172.799 28.6479 172.591 28.6332L172.538 28.6197Z" fill="white"/>
<path d="M182.255 35.0166L181.443 33.3196C181.071 32.5654 180.778 32.4038 180.285 32.4038H179.899V35.0166H178.968V29.2523H179.899V31.7708H180.166C180.751 31.7708 180.898 31.5553 181.217 30.828L181.483 30.2085C181.599 29.8936 181.812 29.6245 182.089 29.4403C182.367 29.2562 182.696 29.1667 183.027 29.1849V30.0334C182.695 30.0334 182.309 30.0334 181.949 30.9897C181.895 31.1975 181.797 31.3908 181.662 31.556C181.526 31.7213 181.356 31.8543 181.164 31.9459V32.0132C181.403 32.102 181.621 32.2401 181.804 32.4186C181.987 32.5971 182.132 32.8122 182.229 33.0503L183.24 35.0301L182.255 35.0166Z" fill="white"/>
<path d="M186.194 35.2188C184.863 35.2188 183.785 34.2087 183.785 32.1616C183.785 29.5622 185.382 29.1582 186.248 29.1582C187.113 29.1582 188.723 29.5757 188.723 32.1616C188.723 34.2087 187.499 35.2188 186.194 35.2188ZM186.194 29.8316C185.662 29.8316 184.73 29.9932 184.73 32.1346C184.73 33.7104 185.396 34.4781 186.194 34.4781C186.993 34.4781 187.672 33.7104 187.672 32.1346C187.672 30.0202 186.753 29.8585 186.248 29.8585L186.194 29.8316Z" fill="white"/>
<path d="M194.819 35.017V30.7611L192.956 34.3975H192.69L190.76 30.7611V35.017H189.935L190.054 29.2393H190.986L192.983 32.9968L194.846 29.2393H195.658L195.778 35.017H194.819Z" fill="white"/>
<path d="M199.319 35.2055C197.988 35.2055 196.963 34.2492 196.963 31.8789C196.963 29.8452 197.029 27.7307 199.053 26.8418C199.718 26.5455 200.983 26.3839 201.422 26.1011V27.1112C200.943 27.4344 199.705 27.5287 199.039 27.8519C198.642 28.065 198.308 28.3826 198.074 28.7713C197.84 29.16 197.713 29.6054 197.708 30.0607H197.815C198.007 29.7696 198.269 29.5329 198.576 29.3726C198.883 29.2124 199.226 29.134 199.572 29.1448C200.397 29.1448 201.874 29.4681 201.874 32.0674C201.92 32.445 201.89 32.8282 201.785 33.1935C201.68 33.5589 201.502 33.8987 201.263 34.1923C201.024 34.486 200.728 34.7272 200.394 34.9014C200.06 35.0756 199.694 35.1791 199.319 35.2055V35.2055ZM199.452 29.8182C199.079 29.8182 197.961 29.8856 197.961 32.0405C197.961 33.7105 198.587 34.4782 199.359 34.4782C200.131 34.4782 200.903 33.7105 200.903 32.1347C200.903 30.0203 199.971 29.8452 199.452 29.8452V29.8182Z" fill="white"/>
<path d="M206.732 35.0166V30.5452L204.07 35.0301H203.125V29.2523H204.07V33.6698L206.732 29.2119H207.664V35.0166H206.732Z" fill="white"/>
<path d="M212.482 35.0168V32.3231H210.046V35.0168H209.114V29.2524H210.046V31.6632H212.482V29.2524H213.427V35.0168H212.482Z" fill="white"/>
<path d="M218.286 35.0167C218.165 34.7339 218.089 34.4341 218.059 34.1278V34.1278C217.878 34.4568 217.607 34.7267 217.28 34.9056C216.952 35.0845 216.581 35.1651 216.209 35.1379C216 35.1393 215.792 35.0957 215.601 35.0099C215.409 34.924 215.238 34.798 215.098 34.64C214.959 34.4821 214.854 34.2959 214.79 34.0938C214.727 33.8917 214.707 33.6783 214.732 33.4678C214.732 31.7439 216.143 31.515 217.008 31.488H218.059V31.0975C218.059 30.0739 217.567 29.9123 217.088 29.9123C216.776 29.9354 216.472 30.0212 216.193 30.1646C215.914 30.3079 215.666 30.506 215.464 30.7473L215.025 30.0066C215.653 29.4896 216.438 29.2088 217.247 29.2119C218.991 29.2119 218.991 30.4241 218.991 31.1513V31.9594C218.886 33.0063 218.962 34.0638 219.217 35.084L218.286 35.0167ZM218.006 32.0268H217.194C216.489 32.0268 215.65 32.1614 215.65 33.2254C215.65 33.9796 216.01 34.3567 216.529 34.3567C217.514 34.3567 218.006 33.2658 218.006 32.5789V32.0268Z" fill="white"/>
<path d="M222.425 30.0067V35.0168H221.48V30.0067H219.923V29.2524H223.916V30.0067H222.425Z" fill="white"/>
</g>
<defs>
<clipPath id="clip0_21_6505">
<rect width="224.262" height="40" fill="white"/>
</clipPath>
</defs>
</svg>
