<svg width="22" height="21" viewBox="0 0 22 21" fill="none" xmlns="http://www.w3.org/2000/svg">
<path fill-rule="evenodd" clip-rule="evenodd" d="M17.9883 2.625H4.09602C2.66169 2.625 1.49989 3.80393 1.49989 5.25L1.49121 15.7493C1.49121 17.1957 2.66139 18.375 4.09602 18.375H17.9883C19.423 18.375 20.5931 17.1957 20.5931 15.75V5.25C20.5931 3.80425 19.423 2.625 17.9883 2.625ZM5.3823 7.87367C4.97208 7.62459 4.83977 7.09112 5.08605 6.67921C5.33471 6.26329 5.87449 6.12942 6.28869 6.38092L11.0167 9.25176L15.9503 6.25612C16.3651 6.00421 16.9058 6.13831 17.1548 6.55488C17.4009 6.96651 17.2697 7.49956 16.8605 7.7498L11.0511 11.303L11.0455 11.3124L5.3823 7.87367Z" fill="#0E9E2F"/>
<mask id="mask0_21_6486" style="mask-type:luminance" maskUnits="userSpaceOnUse" x="1" y="2" width="20" height="17">
<path fill-rule="evenodd" clip-rule="evenodd" d="M17.9883 2.625H4.09602C2.66169 2.625 1.49989 3.80393 1.49989 5.25L1.49121 15.7493C1.49121 17.1957 2.66139 18.375 4.09602 18.375H17.9883C19.423 18.375 20.5931 17.1957 20.5931 15.75V5.25C20.5931 3.80425 19.423 2.625 17.9883 2.625ZM5.3823 7.87367C4.97208 7.62459 4.83977 7.09112 5.08605 6.67921C5.33471 6.26329 5.87449 6.12942 6.28869 6.38092L11.0167 9.25176L15.9503 6.25612C16.3651 6.00421 16.9058 6.13831 17.1548 6.55488C17.4009 6.96651 17.2697 7.49956 16.8605 7.7498L11.0511 11.303L11.0455 11.3124L5.3823 7.87367Z" fill="white"/>
</mask>
<g mask="url(#mask0_21_6486)">
<rect x="0.623047" width="20.8385" height="21" fill="#0E9E2F"/>
</g>
</svg>
