<svg width="22" height="21" viewBox="0 0 22 21" fill="none" xmlns="http://www.w3.org/2000/svg">
<path fill-rule="evenodd" clip-rule="evenodd" d="M6.00153 11.4412C7.25184 13.9175 9.26623 15.9388 11.7234 17.2075L13.6336 15.2825C13.8681 15.0463 14.2154 14.9675 14.5193 15.0725C15.4917 15.3962 16.5423 15.5713 17.619 15.5713C18.0965 15.5713 18.4872 15.965 18.4872 16.4463V19.5C18.4872 19.9813 18.0965 20.375 17.619 20.375C9.46593 20.375 2.8584 13.7163 2.8584 5.5C2.8584 5.01875 3.24912 4.625 3.72667 4.625H6.76561C7.24316 4.625 7.63388 5.01875 7.63388 5.5C7.63388 6.59375 7.80753 7.64375 8.12879 8.62375C8.2243 8.93 8.15484 9.27125 7.91173 9.51625L6.00153 11.4412V11.4412Z" fill="#0E9E2F"/>
<mask id="mask0_21_6479" style="mask-type:luminance" maskUnits="userSpaceOnUse" x="2" y="4" width="17" height="17">
<path fill-rule="evenodd" clip-rule="evenodd" d="M6.00153 11.4412C7.25184 13.9175 9.26623 15.9388 11.7234 17.2075L13.6336 15.2825C13.8681 15.0463 14.2154 14.9675 14.5193 15.0725C15.4917 15.3962 16.5423 15.5713 17.619 15.5713C18.0965 15.5713 18.4872 15.965 18.4872 16.4463V19.5C18.4872 19.9813 18.0965 20.375 17.619 20.375C9.46593 20.375 2.8584 13.7163 2.8584 5.5C2.8584 5.01875 3.24912 4.625 3.72667 4.625H6.76561C7.24316 4.625 7.63388 5.01875 7.63388 5.5C7.63388 6.59375 7.80753 7.64375 8.12879 8.62375C8.2243 8.93 8.15484 9.27125 7.91173 9.51625L6.00153 11.4412V11.4412Z" fill="white"/>
</mask>
<g mask="url(#mask0_21_6479)">
<rect x="0.253906" y="2" width="20.8385" height="21" fill="#0E9E2F"/>
</g>
</svg>
