<svg width="803" height="799" viewBox="0 0 803 799" fill="none" xmlns="http://www.w3.org/2000/svg">
<path d="M55.3144 603.189C58.8808 600.512 61.5634 598.726 65.1299 596.05C64.2399 595.16 64.2398 594.263 63.3435 593.373C59.7771 595.16 56.2044 596.05 52.638 597.836C35.6828 569.279 23.1923 538.943 14.2726 506.821C21.4117 504.144 28.5507 500.571 36.5799 497.895C28.5507 498.785 20.5218 499.681 13.3818 500.572C4.45636 468.449 0 436.326 0 402.416C8.0292 401.526 16.0581 400.63 23.198 399.74C15.1688 398.85 7.13994 397.953 0 397.063C0 364.05 4.46275 331.032 12.4918 298.908C20.5148 299.81 28.5499 300.7 35.6834 301.591C28.5443 298.914 21.4053 295.341 13.3761 292.665C22.3016 260.542 34.7927 230.206 50.8524 201.65C54.4189 203.436 57.9916 204.326 61.558 206.112C62.4481 205.222 62.4481 204.326 63.3443 203.436C59.7779 200.76 57.0953 198.973 53.5288 196.297C70.484 166.851 91.8942 144.544 115.988 127.589C117.774 126.699 119.554 124.912 121.341 124.022C124.907 126.699 128.48 129.375 132.942 132.948C130.266 129.381 127.589 125.809 124.913 122.242C147.22 106.184 172.205 86.5535 199.864 64.2462C200.754 63.3561 201.65 62.4599 203.431 61.5698C206.107 65.1363 208.783 68.7089 212.356 73.1715C210.57 68.7088 208.79 64.246 207.003 59.7897C234.663 37.4824 264.11 22.3134 294.446 13.3888C297.123 20.528 300.695 27.667 303.372 35.6962C302.482 27.667 301.585 19.6381 300.695 12.4982C332.818 4.46895 364.94 0.00637306 398.851 0.00637306C399.741 8.02936 400.637 16.0581 401.527 23.198C402.417 15.1688 403.314 7.13994 404.204 0C437.217 0 470.235 4.46274 502.359 12.4918C501.469 20.521 500.573 28.5499 499.683 35.6898C502.359 28.5507 505.932 21.4117 508.608 13.3825C540.731 22.308 571.067 34.7991 599.624 50.8588C596.947 57.9979 593.374 65.1369 590.698 73.1661C595.161 66.917 600.514 60.6743 604.976 54.4248C633.533 71.3799 659.406 91.0104 683.5 114.208C678.147 119.561 673.684 125.81 669.221 132.053C675.47 127.59 681.713 122.237 687.963 117.775C711.161 140.973 730.791 167.741 747.746 196.298C741.497 200.761 735.255 206.113 729.005 210.576C736.144 207.9 743.283 204.327 751.312 201.651C767.37 230.213 779.863 260.55 788.782 292.672C781.643 295.349 774.504 298.921 766.475 301.598C774.504 300.708 782.533 299.811 789.673 298.921C797.702 331.044 802.165 363.167 802.165 397.077C794.136 397.967 786.107 398.863 778.967 399.753C786.996 400.643 795.025 401.54 802.165 402.43C802.165 426.523 796.812 459.536 788.783 499.688C781.644 498.798 773.615 497.902 766.476 497.012C773.615 499.688 780.754 503.261 787.892 505.937C784.326 522.892 779.863 540.736 774.51 560.367C770.944 574.645 766.481 588.026 761.129 601.416C753.989 598.739 746.85 595.167 739.712 592.49C738.822 593.38 738.822 594.276 737.926 595.166C744.175 599.629 750.417 604.982 756.667 609.445C742.389 640.678 722.758 666.551 697.774 688.859C691.525 683.506 684.392 679.043 678.144 673.69C677.254 674.581 676.357 675.477 676.357 675.477C681.71 681.726 686.173 687.969 691.525 695.107C679.924 704.923 666.541 713.849 652.263 720.981C636.205 729.906 620.14 737.936 605.862 745.074C600.509 738.825 596.047 732.582 590.694 725.444C593.37 732.583 596.943 739.722 599.619 747.751C562.143 766.492 531.807 778.984 508.604 785.227C505.928 778.088 502.355 770.949 499.678 762.92C500.568 770.949 501.465 778.978 502.355 786.118C470.232 794.147 438.11 798.61 404.199 798.61C403.309 790.581 402.413 782.552 401.523 775.412C400.633 783.441 399.737 791.47 398.847 798.61C365.833 798.61 332.815 794.147 300.691 786.118C301.581 778.089 302.478 770.06 303.368 762.92C300.691 770.059 297.119 777.198 294.442 785.227C261.429 776.302 234.659 762.92 212.351 745.965C210.565 744.178 207.888 742.398 206.102 740.612C207.888 735.259 210.565 729.906 212.351 725.444C208.785 729.906 206.102 734.369 202.536 737.936C182.015 721.878 157.03 703.136 129.364 681.719C127.578 680.829 125.798 679.043 124.012 678.153C127.578 673.69 130.261 669.228 133.827 665.661C129.364 669.228 124.902 672.8 120.445 675.477C92.7922 654.943 71.3804 629.96 55.3159 603.19L55.3144 603.189ZM772.718 375.654C771.828 342.641 766.469 310.518 755.763 279.287C745.057 248.053 730.778 218.614 711.148 191.843C691.518 165.073 670.099 140.98 645.117 118.672C620.133 96.3649 593.364 78.5207 563.026 65.1315C532.689 51.7496 502.353 40.1473 470.231 33.0089C438.108 25.8698 405.985 23.1934 372.972 26.7599C339.959 29.4363 307.836 35.6853 274.817 45.5012C241.804 54.4267 216.821 73.1607 199.866 101.717C182.911 130.274 160.603 149.898 131.158 164.176C101.712 178.454 79.4047 201.652 65.1264 231.989C50.8483 262.325 40.1422 294.448 34.79 326.57C28.5409 358.693 26.7608 391.706 28.5409 424.726C30.3273 457.739 36.5701 489.861 47.2823 521.093C57.9879 552.327 72.2665 581.766 90.1108 609.432C108.852 637.091 133.835 656.723 165.959 668.325C198.083 679.926 224.852 697.77 248.05 722.755C270.357 747.739 298.914 762.906 331.927 768.26C364.94 773.614 397.958 775.399 430.971 772.723C463.985 770.046 495.216 763.797 526.45 751.306C556.786 739.704 586.234 725.433 614.788 708.478C643.345 691.522 669.218 671.892 694.203 649.585C718.296 627.277 736.14 599.618 745.956 568.384C755.771 537.151 762.911 505.028 768.263 472.017C771.823 440.796 773.609 407.778 772.719 375.654L772.718 375.654Z" fill="white"/>
</svg>
